<?xml version="1.0" standalone="no"?>
<!DOCTYPE svg PUBLIC "-//W3C//DTD SVG 20010904//EN"
 "http://www.w3.org/TR/2001/REC-SVG-20010904/DTD/svg10.dtd">
<svg version="1.0" xmlns="http://www.w3.org/2000/svg"
 width="512.000000pt" height="512.000000pt" viewBox="0 0 512.000000 512.000000"
 preserveAspectRatio="xMidYMid meet">
<metadata>
Created by potrace 1.14, written by Peter Selinger 2001-2017
</metadata>
<g transform="translate(0.000000,512.000000) scale(0.100000,-0.100000)"
fill="#000000" stroke="none">
<path d="M500 5110 c8 -5 18 -6 22 -4 4 3 8 0 8 -6 0 -6 -11 -8 -26 -6 -23 4
-24 3 -12 -11 12 -15 11 -15 -11 -3 -22 11 -23 11 -17 -6 6 -18 5 -18 -8 -1
-13 16 -14 16 -20 1 -5 -13 -9 -15 -18 -6 -16 16 -25 15 -25 -3 0 -8 5 -15 10
-15 6 0 8 -2 5 -5 -9 -10 -38 7 -32 19 3 6 -6 -1 -20 -16 -27 -31 -41 -35 -50
-15 -3 6 -4 3 -3 -7 1 -10 -4 -21 -11 -23 -8 -3 -10 1 -5 14 3 10 -8 1 -25
-20 -17 -21 -34 -39 -39 -40 -4 -1 -7 -10 -7 -19 1 -14 -2 -15 -20 -6 -11 6
-18 7 -14 3 5 -5 -1 -14 -11 -22 -12 -8 -18 -22 -16 -38 2 -22 0 -23 -14 -13
-9 7 -13 8 -8 3 4 -4 -4 -16 -19 -25 -14 -10 -25 -20 -25 -24 3 -20 0 -26 -11
-20 -7 5 -8 3 -3 -6 8 -14 14 -9 41 36 8 14 12 15 19 4 6 -9 4 -11 -5 -5 -10
6 -12 4 -7 -9 4 -9 3 -14 -2 -11 -5 3 -12 -3 -15 -13 -4 -10 -18 -23 -34 -30
-24 -10 -24 -11 -2 -5 22 5 23 4 11 -11 -8 -9 -19 -15 -26 -12 -6 2 -12 -2
-12 -10 0 -7 4 -11 8 -8 5 3 7 -9 6 -25 -1 -16 -6 -27 -10 -24 -5 3 -6 12 -2
21 3 9 3 13 -2 9 -4 -5 -8 -22 -9 -39 -1 -16 -7 -35 -14 -41 -10 -9 -11 -9 -6
0 3 6 2 14 -3 18 -11 6 -7 -27 5 -47 4 -7 3 -8 -5 -4 -9 6 -11 -262 -11 -1178
1 -793 5 -1184 12 -1180 5 3 8 14 5 23 -3 12 3 17 17 19 15 1 17 -1 7 -7 -8
-5 -11 -16 -8 -26 4 -9 3 -14 -2 -11 -4 3 -13 -6 -19 -19 -9 -20 -9 -23 3 -18
8 3 13 8 11 12 -3 4 4 7 15 7 19 0 19 -1 3 -13 -16 -12 -17 -17 -5 -49 10 -29
11 -38 1 -44 -9 -5 -6 -10 10 -15 18 -6 20 -9 9 -16 -8 -5 -10 -9 -5 -9 4 0 1
-12 -9 -26 -10 -15 -12 -23 -4 -19 8 6 11 4 6 -7 -3 -10 3 -20 19 -28 13 -8
24 -17 24 -22 0 -11 -14 -10 -27 3 -8 8 -13 7 -18 -2 -5 -7 -4 -10 2 -6 15 9
29 -13 28 -43 -1 -14 8 -38 19 -55 12 -16 19 -38 18 -48 -2 -9 1 -16 6 -15 10
3 12 -1 12 -28 0 -9 -5 -12 -12 -8 -7 4 -8 3 -4 -5 4 -6 12 -8 18 -5 6 4 8 -1
3 -16 -5 -17 -4 -21 6 -17 8 2 13 10 11 16 -1 7 2 10 8 6 6 -4 5 -12 -2 -25
-7 -10 -15 -17 -18 -15 -3 2 -6 -4 -6 -14 0 -12 6 -17 18 -13 10 2 18 -1 18
-7 0 -7 4 -10 8 -7 4 2 8 -4 8 -14 0 -14 -3 -16 -13 -8 -10 8 -12 7 -7 -6 3
-9 10 -16 14 -16 4 0 10 -9 13 -21 3 -12 10 -18 16 -15 21 13 20 -14 -1 -29
l-23 -17 23 7 c22 6 23 5 12 -16 -11 -19 -10 -21 5 -15 15 5 16 4 5 -9 -9 -11
-10 -19 -3 -26 8 -8 13 -7 18 2 5 8 4 10 -3 5 -7 -4 -12 -2 -12 4 0 7 6 10 13
7 6 -2 11 -12 9 -22 -2 -11 1 -14 8 -10 9 6 9 2 0 -15 -10 -19 -9 -22 9 -27
17 -4 19 -8 9 -27 l-11 -21 23 20 c13 11 20 14 16 7 -5 -8 0 -22 11 -34 10
-12 12 -18 6 -14 -8 4 -13 1 -13 -8 0 -9 5 -16 10 -16 6 0 10 -5 10 -11 0 -5
-6 -7 -12 -3 -10 6 -10 5 -1 -8 7 -8 9 -19 5 -23 -4 -5 -1 -5 6 -1 7 4 9 12 6
18 -4 7 -2 8 4 4 6 -3 9 -20 7 -36 -2 -17 0 -28 5 -25 5 3 13 -3 19 -12 5 -10
12 -15 15 -12 3 3 -3 15 -14 27 -11 12 -20 25 -20 29 1 4 11 -5 25 -21 19 -24
22 -34 14 -55 -6 -14 -7 -22 -3 -18 4 4 14 1 23 -6 14 -11 14 -10 2 6 -9 11
-10 17 -2 17 11 0 15 -13 12 -39 -2 -7 2 -10 7 -7 5 3 15 -1 22 -9 11 -13 10
-14 -2 -10 -9 4 -15 0 -15 -8 0 -9 7 -12 19 -9 13 3 18 -1 18 -14 0 -16 -2
-17 -10 -4 -5 8 -10 10 -10 4 0 -6 8 -18 17 -25 10 -8 14 -9 10 -2 -4 6 -4 14
1 17 5 3 9 0 9 -7 1 -33 22 -69 35 -61 4 2 9 0 13 -6 3 -5 1 -10 -6 -10 -16 0
-5 -11 13 -14 21 -3 39 -17 33 -26 -3 -5 4 -11 15 -15 20 -6 20 -7 2 -23 -9
-9 -13 -14 -8 -10 4 3 15 4 24 0 13 -5 13 -7 -4 -14 -13 -6 -8 -7 16 -3 19 3
30 2 23 -3 -20 -13 -19 -36 2 -37 12 0 20 -7 20 -17 0 -10 6 -23 14 -30 12
-11 13 -10 7 2 -4 8 -1 7 6 -4 19 -26 46 -56 33 -36 -7 12 -6 13 4 3 7 -6 19
-9 26 -7 7 3 16 1 20 -5 3 -6 0 -9 -8 -5 -8 3 -17 -2 -20 -10 -4 -10 0 -14 13
-11 14 3 18 -1 15 -15 -3 -13 1 -17 11 -13 7 3 11 10 7 16 -3 6 -1 7 6 3 9 -6
9 -11 -1 -24 -11 -13 -10 -15 4 -9 10 3 20 1 24 -5 4 -6 3 -8 -2 -5 -6 3 -16
2 -23 -2 -9 -6 -4 -9 13 -9 14 0 26 5 26 11 0 6 3 7 6 4 4 -4 1 -14 -6 -22
-11 -13 -11 -16 1 -13 8 2 14 -4 13 -13 -1 -9 5 -16 12 -16 9 0 10 5 3 18 -5
10 -9 21 -9 26 1 4 10 -9 21 -29 11 -21 22 -38 25 -38 3 0 3 4 -1 9 -3 5 -1
12 4 16 6 3 8 -6 5 -22 -4 -27 -4 -27 11 -8 16 19 16 19 11 -9 -4 -22 -2 -26
6 -18 15 15 28 15 28 1 0 -5 -5 -7 -10 -4 -6 3 -10 2 -10 -3 0 -4 16 -14 35
-22 19 -7 32 -17 29 -21 -2 -4 5 -10 16 -14 11 -3 20 -13 20 -21 0 -8 5 -12
10 -9 6 4 8 11 5 16 -3 5 1 6 10 2 14 -5 14 -8 3 -15 -9 -7 -6 -8 10 -5 20 5
21 3 10 -11 -11 -14 -10 -15 12 -9 23 5 23 5 7 -7 -16 -12 -15 -14 8 -14 14 0
25 5 25 11 0 6 3 7 7 4 3 -4 -2 -17 -13 -28 -19 -22 -19 -22 5 -9 22 11 23 11
17 -6 -4 -10 -4 -15 0 -11 4 4 13 2 20 -4 8 -7 14 -6 20 2 4 7 3 9 -4 5 -6 -3
-13 -2 -16 3 -4 5 2 8 11 7 10 -2 18 -7 18 -12 1 -12 24 -51 25 -40 0 5 8 2
17 -5 14 -12 16 -12 11 2 -4 9 -1 16 7 16 8 0 12 -8 10 -20 -4 -16 -2 -17 12
-5 12 9 15 9 9 1 -4 -8 -2 -13 6 -13 9 0 9 -3 -2 -10 -8 -5 -10 -10 -4 -10 5
0 15 5 21 11 8 8 13 7 18 -2 6 -8 4 -10 -5 -4 -9 5 -11 4 -6 -4 4 -6 13 -11
19 -10 24 3 37 -1 37 -12 0 -8 -5 -7 -15 1 -13 11 -14 10 -9 -4 6 -16 16 -20
41 -17 27 4 88 -40 75 -54 -4 -5 -1 -5 6 -1 9 6 10 11 3 20 -8 9 -7 13 4 13 7
0 13 -5 12 -11 -1 -5 4 -11 11 -12 6 -1 17 -2 22 -3 6 0 15 -11 20 -23 9 -23
9 -23 10 2 1 23 2 23 9 5 5 -11 6 -24 3 -30 -3 -5 1 -4 9 3 16 14 33 16 24 2
-9 -14 8 -13 23 2 9 9 12 9 12 -1 0 -7 4 -10 9 -6 5 3 12 1 16 -4 3 -6 -3 -8
-15 -6 -11 2 -22 0 -25 -5 -3 -5 4 -7 15 -5 11 2 27 -4 36 -13 15 -15 16 -14
10 8 -6 24 -6 24 5 3 6 -12 18 -24 26 -27 8 -3 12 -2 9 3 -3 5 1 12 10 15 8 3
12 2 9 -4 -4 -6 6 -8 25 -6 17 2 33 -1 36 -6 3 -5 13 -3 22 4 15 12 16 11 3
-4 -7 -10 -17 -16 -20 -13 -4 2 -8 -2 -8 -10 0 -18 2 -18 29 -4 17 9 20 9 15
-3 -4 -11 1 -14 20 -10 14 3 28 -1 33 -7 5 -9 12 -8 25 6 18 17 18 17 13 -3
-6 -22 5 -26 28 -11 7 4 14 -1 17 -13 4 -14 10 -18 23 -13 12 4 15 3 10 -6 -6
-9 -3 -9 13 1 18 11 23 11 31 -2 9 -14 14 -7 11 15 -1 6 6 1 14 -9 8 -11 15
-14 15 -7 0 7 5 9 10 6 6 -4 7 -11 4 -17 -4 -7 -2 -8 5 -4 6 4 9 11 6 16 -3 5
0 12 6 16 8 5 9 3 4 -6 -6 -10 -3 -12 13 -8 12 4 20 2 16 -3 -3 -5 2 -9 11 -9
10 0 13 5 9 12 -5 7 -3 8 5 3 7 -4 11 -15 8 -24 -4 -15 22 -17 310 -19 253 -2
313 0 307 10 -5 10 -4 10 6 1 11 -10 16 -9 27 5 13 15 14 15 10 1 -4 -13 2
-16 32 -15 22 0 38 6 38 13 0 9 -6 9 -19 2 -20 -11 -42 -3 -32 12 3 5 10 7 15
3 6 -3 20 2 31 13 12 10 18 12 14 6 -4 -7 -2 -21 4 -30 10 -16 11 -16 5 2 -5
16 -4 17 6 8 10 -10 16 -9 31 4 10 9 18 11 18 5 0 -12 26 -10 37 3 4 4 3 5 -4
1 -6 -3 -14 -2 -18 3 -6 11 27 7 47 -5 7 -5 8 -3 3 6 -6 9 -2 10 15 5 15 -5
20 -4 16 4 -5 7 -1 8 10 4 13 -5 15 -3 9 8 -4 8 -5 11 0 7 4 -4 14 -3 22 3 7
6 13 8 13 4 0 -4 6 -2 14 4 11 9 16 9 22 0 5 -8 3 -9 -6 -4 -9 5 -11 4 -6 -3
10 -17 26 -15 26 4 0 15 2 15 24 1 22 -15 25 -15 38 1 12 15 11 16 -4 3 -10
-7 -18 -9 -18 -3 0 16 26 22 40 9 10 -9 11 -9 5 2 -6 10 -2 11 16 6 l24 -8
-20 24 c-15 18 -16 20 -2 10 11 -9 17 -10 17 -2 0 6 5 11 11 11 5 0 7 -4 4
-10 -3 -5 -1 -10 4 -10 6 0 11 4 11 10 0 5 7 6 17 3 11 -4 14 -3 9 5 -5 9 -1
9 18 2 16 -6 27 -6 31 1 4 5 11 7 16 4 5 -3 6 1 3 9 -3 8 -11 17 -17 19 -7 2
-4 3 5 2 9 -2 19 0 21 4 2 3 2 0 0 -8 -3 -11 3 -9 18 5 22 18 22 18 15 0 -5
-16 -4 -17 9 -6 8 7 15 9 15 5 0 -4 7 -2 15 5 8 7 15 9 15 5 0 -4 6 -2 14 5 8
6 13 17 10 24 -3 7 2 13 10 13 8 0 12 -5 9 -10 -3 -6 -1 -7 5 -3 5 3 13 0 16
-6 3 -7 4 -4 1 7 -2 11 0 27 6 35 9 13 10 13 6 -2 -4 -12 0 -16 12 -15 13 1
17 6 13 17 -5 13 -4 13 13 0 17 -14 18 -14 6 8 -14 26 -9 28 13 6 15 -14 16
-14 16 2 0 14 3 14 15 4 13 -11 14 -10 10 3 -8 18 11 32 21 16 5 -8 3 -9 -6
-4 -9 5 -11 4 -6 -4 4 -6 12 -9 17 -5 5 3 7 10 4 15 -6 8 7 12 46 12 12 0 16
7 14 24 -2 17 2 23 11 19 8 -3 14 -1 14 4 0 6 5 10 11 10 5 0 7 -4 4 -10 -3
-5 -1 -10 4 -10 6 0 11 8 11 18 0 13 2 14 9 4 6 -10 10 -9 14 7 3 12 10 21 16
21 6 0 8 -8 5 -17 -5 -17 -5 -17 6 0 6 9 9 21 5 26 -8 15 14 24 29 12 15 -13
37 5 30 24 -7 17 13 29 22 14 5 -8 3 -9 -6 -4 -9 5 -11 4 -6 -4 10 -16 27 -3
24 17 -2 12 4 17 20 16 13 -1 22 4 22 13 0 8 -5 11 -12 7 -7 -4 -8 -3 -4 5 5
7 12 9 19 3 7 -5 20 -9 29 -9 13 0 15 5 8 17 -5 10 -5 22 2 31 8 11 9 11 4 -3
-3 -10 -1 -18 4 -18 6 0 10 4 10 9 0 4 8 8 18 7 9 0 18 4 19 9 1 6 -5 9 -14 7
-8 -2 -12 1 -8 7 9 15 42 14 49 -1 3 -7 3 -1 1 14 -2 18 0 25 9 22 7 -3 21 4
31 16 10 11 25 20 34 20 11 1 8 6 -9 15 l-25 15 28 -6 c23 -5 26 -4 20 12 -5
13 -3 15 8 8 8 -4 23 -10 34 -11 16 -2 17 -1 5 6 -8 5 -17 8 -21 5 -10 -6 -5
24 6 33 4 4 5 2 1 -5 -4 -6 -3 -12 2 -12 15 0 22 26 10 38 -6 6 -6 12 3 17 7
5 10 4 5 -3 -3 -6 -2 -13 3 -17 6 -3 8 -13 5 -23 -2 -9 2 -5 9 10 11 23 16 26
26 15 11 -10 12 -8 3 9 -14 27 3 47 28 34 14 -8 16 -5 13 14 -3 13 0 27 6 31
6 3 10 3 9 -2 -3 -7 5 -13 17 -13 3 0 0 10 -6 23 -11 19 -10 20 3 10 15 -13
28 -8 28 11 0 6 -4 5 -9 -2 -7 -11 -9 -10 -14 3 -4 9 -3 13 3 10 6 -3 10 -1
10 5 0 7 7 7 23 -1 20 -11 21 -11 8 4 -10 13 -10 17 -1 17 10 0 10 3 0 15 -11
13 -10 14 5 9 13 -5 16 -4 11 4 -4 8 -2 10 7 6 8 -3 18 -1 21 5 4 6 14 8 24 5
13 -5 14 -4 3 4 -8 6 -10 15 -6 22 5 8 4 11 -2 7 -5 -3 -10 0 -10 7 0 8 8 11
19 8 10 -2 18 1 18 7 0 7 -5 9 -12 5 -7 -4 -8 -3 -4 5 4 6 12 9 17 6 5 -4 9 3
9 14 0 12 5 21 11 21 5 0 7 -6 4 -13 -4 -6 0 -4 8 5 8 10 16 16 19 13 2 -2 3
9 2 25 -1 17 2 27 7 24 5 -3 6 -11 3 -17 -4 -7 -3 -8 2 -4 5 5 9 14 9 20 1 7
6 11 13 10 7 -2 9 4 5 14 -5 12 -2 15 10 10 9 -3 19 -1 23 5 4 6 3 8 -4 4 -6
-3 -13 -2 -17 4 -4 6 -11 7 -17 4 -6 -4 -8 -3 -5 3 4 6 18 9 32 8 22 -3 23 -1
15 16 -8 14 -7 19 1 19 7 0 9 3 6 7 -4 3 -2 13 5 20 9 11 9 17 -3 25 -11 8
-10 9 4 4 10 -3 21 -6 24 -6 4 0 -2 -9 -11 -19 -14 -15 -15 -21 -4 -27 7 -4
10 -3 5 1 -4 5 3 20 15 33 13 14 17 22 11 18 -7 -4 -13 -2 -13 3 0 6 5 11 10
11 6 0 10 11 10 25 0 14 5 25 11 25 5 0 7 -4 4 -10 -3 -6 1 -7 10 -3 9 3 13 9
8 12 -15 11 -13 31 2 31 8 0 15 4 15 10 0 5 -8 7 -17 4 -15 -5 -15 -4 -3 4 9
7 18 7 26 1 8 -7 10 -2 6 18 -4 22 -2 25 13 19 17 -6 17 -5 0 21 -10 16 -12
22 -4 15 17 -16 26 -15 26 3 0 8 -4 12 -9 9 -4 -3 -8 0 -8 5 0 6 10 11 23 11
16 0 18 3 8 9 -17 11 -6 31 17 32 10 0 12 3 5 5 -7 3 -9 12 -6 20 3 7 10 11
17 7 6 -3 3 3 -6 14 -22 24 -24 40 -2 19 8 -9 21 -16 27 -16 7 0 6 4 -3 10 -8
5 -11 10 -6 10 6 0 1 7 -10 15 -14 11 -15 14 -3 9 10 -3 20 0 25 7 5 8 3 10
-6 4 -9 -6 -11 -4 -6 4 5 7 13 10 20 8 11 -4 12 9 7 61 0 7 -6 10 -13 6 -7 -4
-8 -3 -4 5 6 9 11 9 24 -1 13 -11 15 -10 9 4 -3 10 -2 20 3 23 6 4 10 1 10 -6
0 -7 2 -10 5 -7 3 3 1 17 -5 32 -7 20 -7 25 1 20 8 -5 10 3 7 25 -3 18 0 35 5
38 6 3 7 1 3 -5 -4 -7 -2 -12 3 -12 15 0 14 27 -1 34 -7 3 0 3 17 0 l30 -6
-25 22 -25 22 25 -7 c22 -7 23 -6 11 9 -7 9 -9 16 -3 16 5 0 8 10 4 22 -3 13
-1 19 6 15 6 -4 9 0 7 10 -2 10 -4 20 -4 23 -1 3 -6 -2 -12 -10 -9 -13 -10
-13 -6 0 2 8 10 14 16 13 15 -4 14 14 -1 21 -7 3 -2 4 11 3 25 -2 39 27 20 39
-6 3 -3 11 7 18 13 10 14 15 4 21 -9 6 -11 4 -5 -5 5 -8 4 -11 -3 -6 -6 4 -8
17 -3 34 4 15 6 39 5 54 -2 19 1 25 11 22 18 -7 13 24 -6 38 -11 8 -11 9 3 4
10 -3 21 0 25 7 12 20 12 101 0 116 -9 12 -9 13 1 7 9 -5 12 2 12 26 0 19 -6
40 -12 47 -11 11 -10 12 0 7 11 -7 13 43 10 268 -2 188 -6 270 -12 258 -12
-21 -15 -72 -4 -72 4 0 8 -5 8 -11 0 -8 -4 -8 -14 1 -8 6 -12 18 -9 26 3 8 -1
14 -8 14 -9 0 -10 3 -4 8 13 9 19 46 7 38 -6 -3 -9 2 -7 11 1 10 -3 25 -9 33
-9 13 -9 13 6 2 15 -12 17 -11 15 7 -1 14 -6 20 -16 16 -11 -4 -12 -3 -1 10
10 12 10 21 1 43 -8 20 -9 36 -2 55 7 17 7 28 0 32 -5 4 -7 11 -3 16 3 5 2 9
-3 8 -19 -3 -31 2 -37 17 -5 13 -3 14 6 6 10 -8 13 -5 13 13 0 19 -3 21 -14
12 -11 -9 -13 -9 -8 0 4 6 2 15 -4 19 -9 5 -7 11 6 21 16 11 16 13 3 13 -8 0
-22 8 -29 17 -10 11 -10 14 -1 9 7 -4 12 -2 12 4 0 6 5 8 13 4 8 -5 8 -2 -2 9
-15 18 -26 23 -16 7 3 -5 1 -10 -4 -10 -15 0 -14 13 2 29 10 11 9 13 -5 8 -12
-4 -18 -1 -18 9 0 9 5 12 13 8 6 -4 4 2 -6 14 -11 11 -16 26 -12 32 8 13 -29
52 -41 42 -4 -4 -4 -1 1 6 5 10 10 11 18 3 6 -6 16 -11 22 -11 5 0 2 5 -8 11
-9 6 -15 14 -12 20 4 5 -2 6 -11 2 -12 -4 -15 -3 -10 5 16 27 14 53 -5 65 -21
13 -26 28 -6 23 6 -1 9 -1 5 1 -4 3 -11 5 -15 5 -5 1 -14 14 -20 30 -8 18 -17
27 -24 22 -8 -4 -9 -3 -5 4 4 7 2 12 -5 12 -7 0 -9 3 -6 6 4 4 13 2 21 -5 11
-9 15 -8 20 4 3 9 2 14 -3 10 -13 -8 -39 4 -45 21 -3 8 -2 12 3 9 5 -3 12 -1
16 5 3 5 -1 10 -10 10 -9 0 -13 5 -10 10 3 6 1 10 -5 10 -6 0 -8 5 -4 13 5 7
0 6 -11 -3 -16 -13 -18 -13 -13 0 3 8 -1 22 -9 32 -11 12 -11 18 -2 24 8 4 10
3 5 -4 -5 -8 -2 -10 8 -6 13 5 11 10 -10 26 -14 12 -23 27 -20 35 3 8 2 12 -2
10 -4 -3 -16 5 -27 16 -11 11 -13 16 -5 12 13 -8 13 -7 1 8 -7 9 -10 17 -6 17
5 0 1 8 -8 18 -10 10 -14 22 -10 26 5 4 3 7 -2 6 -20 -4 -35 0 -35 11 0 5 4 8
9 4 5 -3 12 -1 15 4 7 11 -13 9 -33 -3 -10 -6 -12 -5 -7 2 4 7 2 12 -5 12 -7
0 -4 7 7 15 18 14 18 14 -3 8 -14 -3 -23 -1 -23 6 0 7 -5 9 -12 5 -7 -4 -8 -3
-4 5 6 9 11 9 21 1 8 -7 15 -7 19 -1 8 13 -4 19 -31 16 -12 -1 -20 2 -17 6 2
4 -2 10 -8 13 -7 3 -2 3 12 0 21 -4 22 -3 8 6 -11 7 -15 17 -11 28 6 14 4 15
-9 4 -17 -14 -34 0 -23 18 3 5 -4 20 -17 33 -13 13 -31 35 -41 50 -11 16 -23
24 -32 21 -11 -5 -13 -2 -9 10 5 12 2 15 -12 10 -17 -5 -17 -4 1 11 14 12 16
16 5 15 -27 -4 -40 0 -40 11 0 5 5 7 12 3 7 -4 8 -3 4 5 -4 6 -11 9 -16 6 -8
-5 -25 23 -22 37 1 4 -5 5 -14 1 -13 -5 -13 -8 -2 -15 10 -8 10 -9 -2 -5 -8 2
-15 8 -16 13 -1 20 -28 63 -35 58 -5 -3 -9 3 -9 13 0 15 -7 19 -28 17 -21 -1
-28 3 -29 18 -2 19 -1 19 11 3 11 -15 14 -16 21 -4 5 8 5 11 0 7 -5 -5 -14 1
-22 12 -8 11 -23 20 -34 20 -11 0 -19 7 -19 16 0 13 -3 14 -14 5 -11 -9 -16
-9 -22 0 -4 8 -3 9 4 5 7 -4 12 -2 12 3 0 6 -7 11 -16 11 -9 0 -12 5 -8 12 5
8 1 9 -12 5 -18 -7 -18 -6 1 9 14 11 15 15 5 14 -33 -5 -61 1 -55 10 4 6 10 8
14 6 4 -3 8 1 8 8 0 7 -6 13 -13 13 -7 0 -11 -4 -8 -9 3 -4 0 -8 -5 -8 -6 0
-11 5 -11 10 0 6 -10 10 -22 10 -17 0 -19 3 -10 12 7 7 12 17 12 22 0 6 -4 5
-9 -3 -7 -12 -13 -12 -24 -3 -7 7 -18 8 -22 4 -5 -4 -5 -1 -1 6 6 10 11 10 24
1 13 -10 13 -8 -1 7 -18 19 -18 19 -33 -1 l-16 -20 4 20 c2 11 7 23 11 26 5 3
1 9 -8 12 -11 5 -14 3 -9 -5 5 -8 2 -9 -12 -4 -10 5 -24 9 -31 9 -8 0 -9 6 -4
16 6 10 4 21 -4 28 -11 10 -15 10 -19 0 -5 -9 -7 -9 -12 1 -3 6 -10 12 -15 12
-6 0 -7 -5 -3 -12 4 -7 3 -8 -4 -4 -7 4 -12 14 -12 22 0 8 -5 14 -11 14 -5 0
-7 -5 -4 -11 4 -6 -2 -5 -14 3 -12 7 -21 17 -21 21 0 5 -7 7 -15 4 -21 -9 -29
11 -13 31 12 15 11 16 -4 3 -14 -10 -18 -10 -18 -1 0 9 -3 10 -13 1 -18 -14
-30 -2 -16 16 12 13 -2 19 -15 6 -9 -10 -37 -13 -31 -4 2 5 -9 21 -25 36 -24
23 -32 26 -45 15 -13 -10 -15 -9 -15 8 0 12 -5 24 -12 28 -7 4 -8 3 -4 -4 4
-7 1 -12 -9 -12 -10 0 -13 -5 -9 -12 5 -9 2 -9 -9 1 -9 7 -17 21 -17 29 0 14
-1 14 -12 -1 -12 -14 -15 -14 -32 -2 -11 8 -15 15 -10 15 6 0 15 -5 22 -12 9
-9 12 -9 12 -1 0 14 -36 27 -50 18 -5 -3 -10 -2 -10 4 0 5 3 11 7 14 5 2 3 2
-4 1 -7 -2 -15 1 -18 6 -4 6 -12 10 -18 10 -8 0 -8 -3 1 -9 11 -7 11 -9 -1
-14 -9 -3 -21 1 -27 8 -7 8 -17 12 -24 8 -6 -3 -5 0 2 8 11 12 14 12 23 -1 9
-13 10 -13 6 0 -2 9 -14 14 -26 13 -12 -2 -20 1 -17 5 2 4 -3 8 -12 8 -9 1
-26 5 -36 9 -13 6 -17 5 -13 -2 4 -7 0 -10 -9 -9 -9 1 -22 13 -30 27 -7 13
-13 19 -14 12 0 -6 -9 -9 -20 -6 -11 3 -17 9 -14 14 3 5 -2 6 -10 3 -9 -3 -13
-11 -9 -17 3 -6 1 -7 -6 -3 -6 4 -9 11 -6 16 3 5 1 11 -5 15 -5 3 -10 -1 -10
-10 0 -9 -4 -13 -10 -10 -5 3 -19 8 -31 10 -16 3 -19 0 -14 -13 4 -13 3 -14
-5 -6 -16 16 -19 47 -6 63 9 12 8 12 -11 1 -12 -8 -19 -20 -16 -29 4 -14 3
-14 -9 -1 -20 23 -53 47 -44 33 4 -7 3 -13 -1 -13 -5 0 -15 6 -22 13 -10 10
-11 8 -6 -8 6 -17 5 -18 -7 -5 -13 15 -62 24 -53 10 2 -4 -2 -7 -10 -7 -8 0
-12 4 -9 9 3 4 1 8 -5 8 -5 0 -11 -5 -13 -10 -2 -6 -9 -1 -17 11 -12 20 -11
21 5 15 10 -4 15 -3 10 1 -12 12 -116 10 -116 -2 0 -7 -3 -7 -8 0 -4 6 -20 12
-36 13 -21 3 -26 1 -20 -10 6 -11 5 -11 -8 0 -12 10 -252 12 -1144 12 -681 0
-1123 -4 -1114 -10z m2391 -9 c7 12 11 11 26 -3 11 -11 13 -18 5 -18 -7 0 -12
5 -12 11 0 5 -5 7 -10 4 -6 -4 -7 -12 -3 -18 4 -7 0 -6 -10 2 -9 7 -17 19 -16
25 0 6 3 5 6 -3 5 -11 7 -11 14 0z m-27 -17 c3 -8 2 -12 -4 -9 -6 3 -10 10
-10 16 0 14 7 11 14 -7z m230 -22 c3 -5 -1 -9 -9 -9 -8 0 -12 4 -9 9 3 4 7 8
9 8 2 0 6 -4 9 -8z m-2733 -39 c-12 -20 -14 -14 -5 12 4 9 9 14 11 11 3 -2 0
-13 -6 -23z m2946 -35 c-3 -8 -6 -5 -6 6 -1 11 2 17 5 13 3 -3 4 -12 1 -19z
m-3033 -6 c-6 -4 -10 -15 -8 -25 1 -9 -1 -15 -6 -12 -5 3 -7 11 -6 18 3 19 17
39 24 32 4 -3 2 -9 -4 -13z m-69 -72 c4 -6 3 -10 -2 -9 -22 4 -32 -3 -27 -18
5 -15 4 -16 -5 -3 -8 11 -7 18 6 28 20 15 20 15 28 2z m3494 -62 c13 -20 12
-22 -1 -11 -8 7 -17 11 -20 8 -2 -3 -5 2 -5 10 0 21 10 19 26 -7z m271 -148
c0 -5 -5 -10 -11 -10 -5 0 -7 5 -4 10 3 6 8 10 11 10 2 0 4 -4 4 -10z m-3926
-106 c3 -8 2 -12 -4 -9 -6 3 -10 10 -10 16 0 14 7 11 14 -7z m-14 -28 c0 -3
-4 -8 -10 -11 -5 -3 -10 -1 -10 4 0 6 5 11 10 11 6 0 10 -2 10 -4z m4252 -113
c-6 -2 -9 -10 -6 -15 4 -7 2 -8 -5 -4 -13 9 -5 26 12 25 9 0 8 -2 -1 -6z m281
-295 c15 -16 27 -31 27 -34 0 -13 -52 43 -66 71 -8 17 -9 21 -2 11 7 -10 25
-32 41 -48z m162 -228 c16 -17 16 -20 3 -15 -9 4 -19 13 -22 21 -7 19 -2 18
19 -6z m43 -95 c-3 -3 -9 2 -12 12 -6 14 -5 15 5 6 7 -7 10 -15 7 -18z m27
-25 c3 -6 -1 -7 -9 -4 -18 7 -21 14 -7 14 6 0 13 -4 16 -10z m139 -268 c3 -5
-1 -9 -9 -9 -8 0 -15 4 -15 9 0 4 4 8 9 8 6 0 12 -4 15 -8z m31 -121 c3 -5 2
-12 -3 -15 -5 -3 -9 1 -9 9 0 17 3 19 12 6z m95 -276 c7 -8 9 -15 6 -15 -4 0
-14 7 -22 15 -9 8 -11 15 -6 15 5 0 15 -7 22 -15z m-19 -48 c-10 -9 -11 -8 -5
6 3 10 9 15 12 12 3 -3 0 -11 -7 -18z m65 -293 c1 -9 0 -13 -4 -10 -3 4 -7 14
-8 22 -1 9 0 13 4 10 3 -4 7 -14 8 -22z m-16 -518 c0 -3 -4 -8 -10 -11 -5 -3
-10 -1 -10 4 0 6 5 11 10 11 6 0 10 -2 10 -4z m16 -59 c3 -22 -8 -28 -26 -16
-10 5 -11 9 -3 9 7 0 10 7 6 16 -4 11 -2 15 7 12 7 -2 14 -12 16 -21z m-5021
-227 c3 -5 2 -10 -4 -10 -5 0 -13 5 -16 10 -3 6 -2 10 4 10 5 0 13 -4 16 -10z
m4982 -5 c0 -8 -4 -12 -9 -9 -4 3 -8 9 -8 15 0 5 4 9 8 9 5 0 9 -7 9 -15z
m-4962 -85 c-3 -5 -12 -10 -18 -10 -7 0 -6 4 3 10 19 12 23 12 15 0z m4 -54
c-3 -3 -11 5 -18 17 -13 21 -12 21 5 5 10 -10 16 -20 13 -22z m65 -161 c-4 -8
-11 -15 -16 -15 -6 0 -5 6 2 15 7 8 14 15 16 15 2 0 1 -7 -2 -15z m4776 -56
c0 -5 -4 -9 -8 -9 -5 0 -9 7 -9 15 0 8 4 12 9 9 4 -3 8 -9 8 -15z m-416 -710
c-3 -5 -10 -7 -15 -3 -5 3 -7 10 -3 15 3 5 10 7 15 3 5 -3 7 -10 3 -15z m-320
-320 c-3 -5 -10 -7 -15 -3 -5 3 -7 10 -3 15 3 5 10 7 15 3 5 -3 7 -10 3 -15z
m-245 -173 c9 -11 9 -16 0 -22 -8 -4 -9 -3 -5 4 4 7 2 12 -3 12 -6 0 -11 5
-11 10 0 14 5 13 19 -4z m-2719 -56 c0 -5 -2 -10 -4 -10 -3 0 -8 5 -11 10 -3
6 -1 10 4 10 6 0 11 -4 11 -10z m2560 -54 c0 -3 -4 -8 -10 -11 -5 -3 -10 -1
-10 4 0 6 5 11 10 11 6 0 10 -2 10 -4z m-246 -128 c-3 -5 -9 -6 -14 -3 -5 3
-11 1 -15 -5 -4 -6 -11 -8 -16 -4 -15 9 -2 20 25 20 13 0 22 -4 20 -8z m-1514
-134 c0 -8 -19 -13 -24 -6 -3 5 1 9 9 9 8 0 15 -2 15 -3z m935 -13 c3 -5 2
-12 -3 -15 -5 -3 -9 1 -9 9 0 17 3 19 12 6z m-744 -15 c14 8 11 -2 -4 -14 -10
-8 -13 -6 -14 11 0 12 1 16 4 9 3 -6 9 -10 14 -6z m69 -16 c0 -5 -5 -10 -11
-10 -5 0 -7 5 -4 10 3 6 8 10 11 10 2 0 4 -4 4 -10z"/>
<path d="M3161 5057 c-8 -10 -7 -14 2 -14 8 0 14 6 14 14 0 7 -1 13 -2 13 -2
0 -8 -6 -14 -13z"/>
<path d="M3730 4851 c0 -5 8 -15 18 -22 15 -12 16 -12 5 2 -7 9 -10 19 -6 22
3 4 1 7 -5 7 -7 0 -12 -4 -12 -9z"/>
<path d="M3875 4760 c3 -5 8 -10 11 -10 2 0 4 5 4 10 0 6 -5 10 -11 10 -5 0
-7 -4 -4 -10z"/>
<path d="M7 4659 c7 -7 15 -10 18 -7 3 3 -2 9 -12 12 -14 6 -15 5 -6 -5z"/>
<path d="M5028 3243 c7 -3 16 -2 19 1 4 3 -2 6 -13 5 -11 0 -14 -3 -6 -6z"/>
<path d="M5070 3081 c0 -6 4 -13 10 -16 6 -3 7 1 4 9 -7 18 -14 21 -14 7z"/>
<path d="M5090 2960 c-9 -6 -10 -10 -3 -10 6 0 15 5 18 10 8 12 4 12 -15 0z"/>
<path d="M26 2127 c3 -10 9 -15 12 -12 3 3 0 11 -7 18 -10 9 -11 8 -5 -6z"/>
<path d="M5085 2131 c-3 -5 0 -13 6 -17 7 -4 9 -3 5 4 -3 5 0 13 6 15 9 4 10
6 1 6 -6 1 -14 -3 -18 -8z"/>
<path d="M81 1833 c-1 -17 16 -25 25 -12 4 7 3 9 -4 5 -5 -3 -13 0 -15 6 -4 9
-6 10 -6 1z"/>
<path d="M173 1575 c0 -8 4 -12 8 -9 4 2 9 -2 12 -8 3 -9 8 -10 13 -3 5 6 7 9
5 7 -2 -1 -12 5 -21 13 -14 13 -17 13 -17 0z"/>
<path d="M286 1362 c-3 -5 1 -9 9 -9 8 0 12 4 9 9 -3 4 -7 8 -9 8 -2 0 -6 -4
-9 -8z"/>
<path d="M554 956 c0 -15 6 -22 21 -23 18 -2 18 -1 2 8 -9 6 -15 14 -12 19 3
5 2 11 -3 14 -4 2 -8 -5 -8 -18z"/>
<path d="M3935 400 c3 -5 8 -10 11 -10 2 0 4 5 4 10 0 6 -5 10 -11 10 -5 0 -7
-4 -4 -10z"/>
<path d="M1430 246 c0 -2 7 -7 16 -10 8 -3 12 -2 9 4 -6 10 -25 14 -25 6z"/>
<path d="M1514 208 c-4 -7 -4 -10 1 -6 4 4 15 2 24 -5 14 -11 14 -10 2 6 -16
20 -18 21 -27 5z"/>
<path d="M3147 73 c-4 -3 -7 -11 -7 -17 0 -6 5 -5 12 2 6 6 9 14 7 17 -3 3 -9
2 -12 -2z"/>
<path d="M3116 42 c-3 -5 1 -9 9 -9 8 0 12 4 9 9 -3 4 -7 8 -9 8 -2 0 -6 -4
-9 -8z"/>
<path d="M2156 17 c3 -10 9 -15 12 -12 3 3 0 11 -7 18 -10 9 -11 8 -5 -6z"/>
</g>
</svg>
