<?xml version="1.0" standalone="no"?>
<!DOCTYPE svg PUBLIC "-//W3C//DTD SVG 20010904//EN"
 "http://www.w3.org/TR/2001/REC-SVG-20010904/DTD/svg10.dtd">
<svg version="1.0" xmlns="http://www.w3.org/2000/svg"
 width="416.000000pt" height="416.000000pt" viewBox="0 0 416.000000 416.000000"
 preserveAspectRatio="xMidYMid meet">
<metadata>
Created by potrace 1.14, written by Peter Selinger 2001-2017
</metadata>
<g transform="translate(0.000000,416.000000) scale(0.100000,-0.100000)"
fill="#000000" stroke="none">
<path d="M0 2080 l0 -2080 2080 0 2080 0 0 2080 0 2080 -2080 0 -2080 0 0
-2080z m2350 1423 c522 -84 974 -474 1141 -986 92 -282 92 -629 -2 -907 -120
-359 -379 -665 -711 -840 -326 -172 -724 -210 -1093 -105 -121 34 -350 149
-455 229 -295 223 -499 550 -566 911 -27 145 -25 403 4 541 62 288 184 522
381 726 344 359 805 512 1301 431z"/>
<path d="M1980 2809 c-163 -19 -290 -79 -401 -189 -143 -142 -206 -325 -196
-570 6 -142 22 -215 72 -315 82 -168 241 -295 432 -346 102 -28 286 -30 388
-5 125 30 229 89 326 186 104 103 150 187 179 330 73 353 -62 694 -329 833
-83 44 -153 64 -266 77 -100 11 -99 11 -205 -1z m195 -332 c42 -42 63 -132 71
-309 11 -228 -19 -398 -80 -463 -66 -69 -155 -38 -195 70 -38 102 -52 323 -31
502 13 119 28 163 65 200 29 29 39 33 85 33 45 0 56 -4 85 -33z"/>
</g>
</svg>
